<svg width="255" height="100" viewBox="0 0 255 100" fill="none" xmlns="http://www.w3.org/2000/svg">
<rect width="255" height="100" rx="29" fill="url(#paint0_linear_1_858)"/>
<path d="M104.75 64C104.002 64 103.424 63.8073 103.016 63.422C102.631 63.014 102.438 62.436 102.438 61.688V42.342C102.438 41.594 102.631 41.0273 103.016 40.642C103.424 40.234 104.002 40.03 104.75 40.03H112.91C114.588 40.03 116.016 40.2793 117.194 40.778C118.373 41.2767 119.268 41.9907 119.88 42.92C120.515 43.8493 120.832 44.96 120.832 46.252C120.832 47.7027 120.413 48.9267 119.574 49.924C118.736 50.9213 117.591 51.59 116.14 51.93V51.42C117.818 51.6693 119.121 52.304 120.05 53.324C120.98 54.344 121.444 55.67 121.444 57.302C121.444 59.4327 120.719 61.0873 119.268 62.266C117.84 63.422 115.846 64 113.284 64H104.75ZM106.62 60.702H112.74C114.282 60.702 115.415 60.4073 116.14 59.818C116.866 59.206 117.228 58.2993 117.228 57.098C117.228 55.874 116.866 54.9673 116.14 54.378C115.415 53.7887 114.282 53.494 112.74 53.494H106.62V60.702ZM106.62 50.196H112.162C113.658 50.196 114.769 49.9127 115.494 49.346C116.242 48.7567 116.616 47.8953 116.616 46.762C116.616 45.6287 116.242 44.7787 115.494 44.212C114.769 43.6227 113.658 43.328 112.162 43.328H106.62V50.196ZM131.117 64.34C129.235 64.34 127.819 63.8073 126.867 62.742C125.915 61.654 125.439 60.0673 125.439 57.982V41.9C125.439 41.1973 125.62 40.6647 125.983 40.302C126.345 39.9393 126.867 39.758 127.547 39.758C128.227 39.758 128.748 39.9393 129.111 40.302C129.496 40.6647 129.689 41.1973 129.689 41.9V57.778C129.689 58.8207 129.904 59.5913 130.335 60.09C130.788 60.5887 131.423 60.838 132.239 60.838C132.42 60.838 132.59 60.838 132.749 60.838C132.907 60.8153 133.066 60.7927 133.225 60.77C133.542 60.7247 133.757 60.8153 133.871 61.042C133.984 61.246 134.041 61.6767 134.041 62.334C134.041 62.9007 133.927 63.3427 133.701 63.66C133.474 63.9773 133.1 64.17 132.579 64.238C132.352 64.2607 132.114 64.2833 131.865 64.306C131.615 64.3287 131.366 64.34 131.117 64.34ZM142.314 64.34C140.931 64.34 139.787 64.0907 138.88 63.592C137.973 63.0707 137.293 62.3 136.84 61.28C136.409 60.26 136.194 58.9907 136.194 57.472V49.244C136.194 48.5187 136.375 47.986 136.738 47.646C137.101 47.2833 137.622 47.102 138.302 47.102C138.982 47.102 139.503 47.2833 139.866 47.646C140.251 47.986 140.444 48.5187 140.444 49.244V57.54C140.444 58.7187 140.682 59.5913 141.158 60.158C141.634 60.7247 142.393 61.008 143.436 61.008C144.569 61.008 145.499 60.6227 146.224 59.852C146.949 59.0587 147.312 58.016 147.312 56.724V49.244C147.312 48.5187 147.493 47.986 147.856 47.646C148.219 47.2833 148.74 47.102 149.42 47.102C150.1 47.102 150.621 47.2833 150.984 47.646C151.369 47.986 151.562 48.5187 151.562 49.244V62.096C151.562 63.5467 150.871 64.272 149.488 64.272C148.831 64.272 148.321 64.0907 147.958 63.728C147.595 63.3427 147.414 62.7987 147.414 62.096V59.512L147.89 60.532C147.414 61.756 146.689 62.6967 145.714 63.354C144.762 64.0113 143.629 64.34 142.314 64.34ZM164.179 64.34C162.298 64.34 160.677 63.9887 159.317 63.286C157.957 62.5833 156.903 61.586 156.155 60.294C155.43 59.002 155.067 57.472 155.067 55.704C155.067 53.9813 155.419 52.474 156.121 51.182C156.847 49.89 157.833 48.8813 159.079 48.156C160.349 47.408 161.788 47.034 163.397 47.034C164.576 47.034 165.63 47.2267 166.559 47.612C167.511 47.9973 168.316 48.5527 168.973 49.278C169.653 50.0033 170.163 50.8873 170.503 51.93C170.866 52.95 171.047 54.106 171.047 55.398C171.047 55.806 170.9 56.1233 170.605 56.35C170.333 56.554 169.937 56.656 169.415 56.656H158.501V54.208H168.055L167.511 54.718C167.511 53.6753 167.353 52.8027 167.035 52.1C166.741 51.3973 166.299 50.8647 165.709 50.502C165.143 50.1167 164.429 49.924 163.567 49.924C162.615 49.924 161.799 50.1507 161.119 50.604C160.462 51.0347 159.952 51.658 159.589 52.474C159.249 53.2673 159.079 54.2193 159.079 55.33V55.568C159.079 57.4267 159.51 58.8207 160.371 59.75C161.255 60.6567 162.547 61.11 164.247 61.11C164.837 61.11 165.494 61.042 166.219 60.906C166.967 60.7473 167.67 60.4867 168.327 60.124C168.803 59.852 169.223 59.7387 169.585 59.784C169.948 59.8067 170.231 59.9313 170.435 60.158C170.662 60.3847 170.798 60.668 170.843 61.008C170.889 61.3253 170.821 61.654 170.639 61.994C170.481 62.334 170.197 62.6287 169.789 62.878C168.996 63.3767 168.078 63.7507 167.035 64C166.015 64.2267 165.063 64.34 164.179 64.34ZM183.083 64.34C182.086 64.34 181.088 64.2607 180.091 64.102C179.094 63.966 178.153 63.7507 177.269 63.456C176.385 63.1387 175.592 62.7533 174.889 62.3C174.481 62.028 174.198 61.6993 174.039 61.314C173.88 60.9287 173.824 60.5547 173.869 60.192C173.937 59.8067 174.084 59.478 174.311 59.206C174.56 58.9113 174.866 58.73 175.229 58.662C175.592 58.594 175.988 58.696 176.419 58.968C177.416 59.5573 178.47 59.988 179.581 60.26C180.692 60.532 181.859 60.668 183.083 60.668C184.874 60.668 186.177 60.3733 186.993 59.784C187.809 59.172 188.217 58.39 188.217 57.438C188.217 56.6447 187.922 56.0213 187.333 55.568C186.766 55.1147 185.78 54.7407 184.375 54.446L180.635 53.664C178.482 53.2107 176.872 52.4513 175.807 51.386C174.764 50.298 174.243 48.87 174.243 47.102C174.243 45.9913 174.47 44.9827 174.923 44.076C175.376 43.1693 176.011 42.3873 176.827 41.73C177.666 41.0727 178.652 40.574 179.785 40.234C180.941 39.8713 182.21 39.69 183.593 39.69C184.953 39.69 186.245 39.86 187.469 40.2C188.693 40.54 189.792 41.0387 190.767 41.696C191.13 41.9453 191.368 42.2513 191.481 42.614C191.617 42.9767 191.651 43.3393 191.583 43.702C191.515 44.042 191.356 44.3367 191.107 44.586C190.858 44.8353 190.54 44.9827 190.155 45.028C189.792 45.0733 189.373 44.96 188.897 44.688C188.058 44.212 187.208 43.872 186.347 43.668C185.486 43.464 184.556 43.362 183.559 43.362C182.516 43.362 181.621 43.5093 180.873 43.804C180.125 44.0987 179.547 44.518 179.139 45.062C178.754 45.5833 178.561 46.2067 178.561 46.932C178.561 47.748 178.833 48.4053 179.377 48.904C179.921 49.38 180.85 49.754 182.165 50.026L185.871 50.808C188.115 51.284 189.781 52.032 190.869 53.052C191.98 54.072 192.535 55.432 192.535 57.132C192.535 58.22 192.308 59.206 191.855 60.09C191.424 60.974 190.79 61.7333 189.951 62.368C189.135 63.0027 188.149 63.49 186.993 63.83C185.837 64.17 184.534 64.34 183.083 64.34ZM197.97 64.272C197.29 64.272 196.769 64.0907 196.406 63.728C196.044 63.3427 195.862 62.7987 195.862 62.096V41.9C195.862 41.1973 196.044 40.6647 196.406 40.302C196.769 39.9393 197.29 39.758 197.97 39.758C198.65 39.758 199.172 39.9393 199.534 40.302C199.92 40.6647 200.112 41.1973 200.112 41.9V54.446H200.18L205.79 48.53C206.244 48.0767 206.64 47.7253 206.98 47.476C207.32 47.2267 207.785 47.102 208.374 47.102C208.964 47.102 209.406 47.2607 209.7 47.578C210.018 47.8727 210.176 48.2353 210.176 48.666C210.176 49.0967 209.972 49.5273 209.564 49.958L203.648 56.214V54.446L210.142 61.45C210.55 61.8807 210.732 62.3227 210.686 62.776C210.664 63.2067 210.482 63.5693 210.142 63.864C209.802 64.136 209.372 64.272 208.85 64.272C208.216 64.272 207.706 64.1473 207.32 63.898C206.958 63.6487 206.55 63.2747 206.096 62.776L200.18 56.588H200.112V62.096C200.112 63.5467 199.398 64.272 197.97 64.272ZM217.709 70.392C217.211 70.392 216.803 70.256 216.485 69.984C216.168 69.7347 215.975 69.3947 215.907 68.964C215.862 68.5333 215.941 68.08 216.145 67.604L218.457 62.47V64.238L212.269 49.924C212.065 49.4253 211.997 48.9607 212.065 48.53C212.133 48.0993 212.337 47.7593 212.677 47.51C213.04 47.238 213.527 47.102 214.139 47.102C214.661 47.102 215.08 47.2267 215.397 47.476C215.715 47.7027 215.998 48.1447 216.247 48.802L220.837 60.26H219.817L224.509 48.768C224.759 48.1333 225.053 47.7027 225.393 47.476C225.733 47.2267 226.187 47.102 226.753 47.102C227.252 47.102 227.649 47.238 227.943 47.51C228.238 47.7593 228.419 48.0993 228.487 48.53C228.555 48.938 228.476 49.3913 228.249 49.89L219.987 68.76C219.693 69.3947 219.375 69.8253 219.035 70.052C218.695 70.2787 218.253 70.392 217.709 70.392Z" fill="white"/>
<path d="M39.9219 29.231C46.2276 33.9231 53.0096 43.4373 55.5 48.5425C57.9904 43.4373 64.7724 33.9231 71.0781 29.231C75.6279 25.8453 83 23.2257 83 31.5615C83 33.2263 82.037 45.5467 81.4722 47.547C79.509 54.5009 72.3551 56.2746 65.9913 55.201C77.1148 57.0775 79.9444 63.293 73.8333 69.5085C62.2271 81.313 57.152 66.5467 55.8516 62.7631C55.6132 62.0695 55.5016 61.745 55.5 62.0209C55.4984 61.745 55.3868 62.0695 55.1484 62.7631C53.848 66.5467 48.7729 81.313 37.1667 69.5085C31.0556 63.293 33.8852 57.0775 45.0087 55.201C38.6449 56.2746 31.491 54.5009 29.5278 47.547C28.963 45.5467 28 33.2263 28 31.5615C28 23.2257 35.3721 25.8453 39.9219 29.231Z" fill="#568CFF"/>
<defs>
<linearGradient id="paint0_linear_1_858" x1="127.5" y1="0" x2="127.5" y2="100" gradientUnits="userSpaceOnUse">
<stop stop-color="#353535"/>
<stop offset="1" stop-color="#676565"/>
</linearGradient>
</defs>
</svg>
