<svg width="255" height="100" viewBox="0 0 255 100" fill="none" xmlns="http://www.w3.org/2000/svg">
<rect width="255" height="100" rx="29" fill="url(#paint0_linear_1_857)"/>
<circle cx="54.5128" cy="48.8854" r="37.5" fill="white"/>
<path d="M54.591 13.0707C35.6701 13.0707 20.1701 27.6348 18.6981 46.1417L38.0025 54.1095C39.6378 52.9917 41.6151 52.3406 43.7402 52.3406C43.932 52.3406 44.1212 52.3457 44.3077 52.356L52.8935 39.9326V39.7582C52.8935 32.2827 58.9862 26.1991 66.4758 26.1991C73.9654 26.1991 80.0581 32.2827 80.0581 39.7582C80.0581 47.2338 73.9654 53.3199 66.4758 53.3199C66.3721 53.3199 66.2711 53.3173 66.1674 53.3148L53.9224 62.0337C53.9301 62.1952 53.9353 62.3567 53.9353 62.5157C53.9353 68.13 49.3613 72.6959 43.7402 72.6959C38.8059 72.6959 34.6776 69.1786 33.7446 64.523L19.9369 58.824C24.2129 73.9162 38.1036 84.9809 54.591 84.9809C74.4837 84.9809 90.6082 68.8812 90.6082 49.0258C90.6082 29.1678 74.4837 13.0707 54.591 13.0707ZM41.2689 67.6265L36.8451 65.8012C37.6278 67.4317 38.9858 68.7956 40.7869 69.5441C44.6794 71.1644 49.1679 69.3211 50.7902 65.4321C51.5755 63.5504 51.5806 61.4738 50.8032 59.587C50.0257 57.7001 48.5563 56.2286 46.6723 55.4441C44.7986 54.6673 42.7927 54.6955 41.0305 55.3595L45.602 57.2464C48.4734 58.441 49.8314 61.7327 48.6341 64.5989C47.4394 67.465 44.1403 68.8212 41.2689 67.6265ZM75.5265 39.7585C75.5265 34.7773 71.4655 30.7217 66.4768 30.7217C61.4855 30.7217 57.4246 34.7773 57.4246 39.7585C57.4246 44.7396 61.4855 48.7928 66.4768 48.7928C71.4655 48.7928 75.5265 44.7396 75.5265 39.7585ZM59.6922 39.7431C59.6922 35.9951 62.7372 32.9572 66.4898 32.9572C70.2449 32.9572 73.29 35.9951 73.29 39.7431C73.29 43.4912 70.2449 46.5291 66.4898 46.5291C62.7372 46.5291 59.6922 43.4912 59.6922 39.7431Z" fill="url(#paint1_linear_1_857)"/>
<path d="M117.886 64.4C116.713 64.4 115.539 64.3067 114.366 64.12C113.193 63.96 112.086 63.7067 111.046 63.36C110.006 62.9867 109.073 62.5333 108.246 62C107.766 61.68 107.433 61.2933 107.246 60.84C107.059 60.3867 106.993 59.9467 107.046 59.52C107.126 59.0667 107.299 58.68 107.566 58.36C107.859 58.0133 108.219 57.8 108.646 57.72C109.073 57.64 109.539 57.76 110.046 58.08C111.219 58.7733 112.459 59.28 113.766 59.6C115.073 59.92 116.446 60.08 117.886 60.08C119.993 60.08 121.526 59.7333 122.486 59.04C123.446 58.32 123.926 57.4 123.926 56.28C123.926 55.3467 123.579 54.6133 122.886 54.08C122.219 53.5467 121.059 53.1067 119.406 52.76L115.006 51.84C112.473 51.3067 110.579 50.4133 109.326 49.16C108.099 47.88 107.486 46.2 107.486 44.12C107.486 42.8133 107.753 41.6267 108.286 40.56C108.819 39.4933 109.566 38.5733 110.526 37.8C111.513 37.0267 112.673 36.44 114.006 36.04C115.366 35.6133 116.859 35.4 118.486 35.4C120.086 35.4 121.606 35.6 123.046 36C124.486 36.4 125.779 36.9867 126.926 37.76C127.353 38.0533 127.633 38.4133 127.766 38.84C127.926 39.2667 127.966 39.6933 127.886 40.12C127.806 40.52 127.619 40.8667 127.326 41.16C127.033 41.4533 126.659 41.6267 126.206 41.68C125.779 41.7333 125.286 41.6 124.726 41.28C123.739 40.72 122.739 40.32 121.726 40.08C120.713 39.84 119.619 39.72 118.446 39.72C117.219 39.72 116.166 39.8933 115.286 40.24C114.406 40.5867 113.726 41.08 113.246 41.72C112.793 42.3333 112.566 43.0667 112.566 43.92C112.566 44.88 112.886 45.6533 113.526 46.24C114.166 46.8 115.259 47.24 116.806 47.56L121.166 48.48C123.806 49.04 125.766 49.92 127.046 51.12C128.353 52.32 129.006 53.92 129.006 55.92C129.006 57.2 128.739 58.36 128.206 59.4C127.699 60.44 126.953 61.3333 125.966 62.08C125.006 62.8267 123.846 63.4 122.486 63.8C121.126 64.2 119.593 64.4 117.886 64.4ZM141.685 64.4C139.952 64.4 138.498 64.1067 137.325 63.52C136.178 62.9333 135.325 62.08 134.765 60.96C134.205 59.8133 133.925 58.4 133.925 56.72V48.2H131.845C131.205 48.2 130.712 48.04 130.365 47.72C130.018 47.3733 129.845 46.9067 129.845 46.32C129.845 45.7067 130.018 45.24 130.365 44.92C130.712 44.6 131.205 44.44 131.845 44.44H133.925V40.8C133.925 39.9733 134.138 39.3467 134.565 38.92C135.018 38.4933 135.645 38.28 136.445 38.28C137.245 38.28 137.858 38.4933 138.285 38.92C138.712 39.3467 138.925 39.9733 138.925 40.8V44.44H143.165C143.805 44.44 144.298 44.6 144.645 44.92C144.992 45.24 145.165 45.7067 145.165 46.32C145.165 46.9067 144.992 47.3733 144.645 47.72C144.298 48.04 143.805 48.2 143.165 48.2H138.925V56.44C138.925 57.72 139.205 58.68 139.765 59.32C140.325 59.96 141.232 60.28 142.485 60.28C142.938 60.28 143.338 60.24 143.685 60.16C144.032 60.08 144.338 60.0267 144.605 60C144.925 59.9733 145.192 60.08 145.405 60.32C145.618 60.5333 145.725 60.9867 145.725 61.68C145.725 62.2133 145.632 62.6933 145.445 63.12C145.285 63.52 144.978 63.8 144.525 63.96C144.178 64.0667 143.725 64.16 143.165 64.24C142.605 64.3467 142.112 64.4 141.685 64.4ZM157.521 64.4C155.308 64.4 153.401 63.9867 151.801 63.16C150.201 62.3333 148.961 61.16 148.081 59.64C147.228 58.12 146.801 56.32 146.801 54.24C146.801 52.2133 147.215 50.44 148.041 48.92C148.895 47.4 150.055 46.2133 151.521 45.36C153.015 44.48 154.708 44.04 156.601 44.04C157.988 44.04 159.228 44.2667 160.321 44.72C161.441 45.1733 162.388 45.8267 163.161 46.68C163.961 47.5333 164.561 48.5733 164.961 49.8C165.388 51 165.601 52.36 165.601 53.88C165.601 54.36 165.428 54.7333 165.081 55C164.761 55.24 164.295 55.36 163.681 55.36H150.841V52.48H162.081L161.441 53.08C161.441 51.8533 161.255 50.8267 160.881 50C160.535 49.1733 160.015 48.5467 159.321 48.12C158.655 47.6667 157.815 47.44 156.801 47.44C155.681 47.44 154.721 47.7067 153.921 48.24C153.148 48.7467 152.548 49.48 152.121 50.44C151.721 51.3733 151.521 52.4933 151.521 53.8V54.08C151.521 56.2667 152.028 57.9067 153.041 59C154.081 60.0667 155.601 60.6 157.601 60.6C158.295 60.6 159.068 60.52 159.921 60.36C160.801 60.1733 161.628 59.8667 162.401 59.44C162.961 59.12 163.455 58.9867 163.881 59.04C164.308 59.0667 164.641 59.2133 164.881 59.48C165.148 59.7467 165.308 60.08 165.361 60.48C165.415 60.8533 165.335 61.24 165.121 61.64C164.935 62.04 164.601 62.3867 164.121 62.68C163.188 63.2667 162.108 63.7067 160.881 64C159.681 64.2667 158.561 64.4 157.521 64.4ZM176.001 64.4C174.588 64.4 173.321 64.1333 172.201 63.6C171.108 63.04 170.241 62.2933 169.601 61.36C168.988 60.4267 168.681 59.3733 168.681 58.2C168.681 56.76 169.054 55.6267 169.801 54.8C170.548 53.9467 171.761 53.3333 173.441 52.96C175.121 52.5867 177.374 52.4 180.201 52.4H182.201V55.28H180.241C178.588 55.28 177.268 55.36 176.281 55.52C175.294 55.68 174.588 55.96 174.161 56.36C173.761 56.7333 173.561 57.2667 173.561 57.96C173.561 58.84 173.868 59.56 174.481 60.12C175.094 60.68 175.948 60.96 177.041 60.96C177.921 60.96 178.694 60.76 179.361 60.36C180.054 59.9333 180.601 59.36 181.001 58.64C181.401 57.92 181.601 57.0933 181.601 56.16V51.56C181.601 50.2267 181.308 49.2667 180.721 48.68C180.134 48.0933 179.148 47.8 177.761 47.8C176.988 47.8 176.148 47.8933 175.241 48.08C174.361 48.2667 173.428 48.5867 172.441 49.04C171.934 49.28 171.481 49.3467 171.081 49.24C170.708 49.1333 170.414 48.92 170.201 48.6C169.988 48.2533 169.881 47.88 169.881 47.48C169.881 47.08 169.988 46.6933 170.201 46.32C170.414 45.92 170.774 45.6267 171.281 45.44C172.508 44.9333 173.681 44.5733 174.801 44.36C175.948 44.1467 176.988 44.04 177.921 44.04C179.841 44.04 181.414 44.3333 182.641 44.92C183.894 45.5067 184.828 46.4 185.441 47.6C186.054 48.7733 186.361 50.2933 186.361 52.16V61.76C186.361 62.5867 186.161 63.2267 185.761 63.68C185.361 64.1067 184.788 64.32 184.041 64.32C183.294 64.32 182.708 64.1067 182.281 63.68C181.881 63.2267 181.681 62.5867 181.681 61.76V59.84H182.001C181.814 60.7733 181.441 61.5867 180.881 62.28C180.348 62.9467 179.668 63.4667 178.841 63.84C178.014 64.2133 177.068 64.4 176.001 64.4ZM193.996 64.32C193.196 64.32 192.583 64.1067 192.156 63.68C191.729 63.2267 191.516 62.5867 191.516 61.76V46.64C191.516 45.8133 191.729 45.1867 192.156 44.76C192.583 44.3333 193.183 44.12 193.956 44.12C194.729 44.12 195.329 44.3333 195.756 44.76C196.183 45.1867 196.396 45.8133 196.396 46.64V49.56L195.956 48.36C196.489 47.0267 197.316 45.9733 198.436 45.2C199.556 44.4267 200.889 44.04 202.436 44.04C204.009 44.04 205.303 44.4133 206.316 45.16C207.329 45.9067 208.036 47.0533 208.436 48.6H207.876C208.409 47.1867 209.289 46.08 210.516 45.28C211.743 44.4533 213.156 44.04 214.756 44.04C216.249 44.04 217.476 44.3333 218.436 44.92C219.423 45.5067 220.156 46.4 220.636 47.6C221.116 48.7733 221.356 50.2667 221.356 52.08V61.76C221.356 62.5867 221.129 63.2267 220.676 63.68C220.249 64.1067 219.636 64.32 218.836 64.32C218.036 64.32 217.423 64.1067 216.996 63.68C216.569 63.2267 216.356 62.5867 216.356 61.76V52.28C216.356 50.7867 216.103 49.6933 215.596 49C215.116 48.3067 214.289 47.96 213.116 47.96C211.809 47.96 210.783 48.4267 210.036 49.36C209.289 50.2667 208.916 51.5333 208.916 53.16V61.76C208.916 62.5867 208.703 63.2267 208.276 63.68C207.849 64.1067 207.236 64.32 206.436 64.32C205.636 64.32 205.009 64.1067 204.556 63.68C204.129 63.2267 203.916 62.5867 203.916 61.76V52.28C203.916 50.7867 203.663 49.6933 203.156 49C202.676 48.3067 201.863 47.96 200.716 47.96C199.409 47.96 198.383 48.4267 197.636 49.36C196.889 50.2667 196.516 51.5333 196.516 53.16V61.76C196.516 63.4667 195.676 64.32 193.996 64.32Z" fill="white"/>
<defs>
<linearGradient id="paint0_linear_1_857" x1="127.5" y1="0" x2="127.5" y2="100" gradientUnits="userSpaceOnUse">
<stop stop-color="#353535"/>
<stop offset="1" stop-color="#676565"/>
</linearGradient>
<linearGradient id="paint1_linear_1_857" x1="54.6532" y1="13.0707" x2="54.6532" y2="84.9809" gradientUnits="userSpaceOnUse">
<stop stop-color="#1B1B1B"/>
<stop offset="1" stop-color="#454DE9"/>
</linearGradient>
</defs>
</svg>
