<svg width="267" height="267" viewBox="0 0 267 267" fill="none" xmlns="http://www.w3.org/2000/svg">
<circle cx="133.5" cy="133.5" r="133.5" fill="white"/>
<path d="M133.779 6C66.4204 6 11.2403 57.848 6 123.733L74.7237 152.098C80.5452 148.119 87.5846 145.801 95.1498 145.801C95.8325 145.801 96.506 145.819 97.1702 145.855L127.736 101.628V101.007C127.736 74.3944 149.426 52.7371 176.089 52.7371C202.751 52.7371 224.441 74.3944 224.441 101.007C224.441 127.621 202.751 149.287 176.089 149.287C175.719 149.287 175.36 149.278 174.991 149.269L131.398 180.308C131.426 180.883 131.444 181.458 131.444 182.024C131.444 202.011 115.161 218.266 95.1498 218.266C77.5837 218.266 62.8868 205.744 59.5655 189.17L10.41 168.882C25.6327 222.61 75.0835 262 133.779 262C204.597 262 262 204.685 262 134C262 63.3057 204.597 6 133.779 6ZM86.352 200.219L70.6034 193.721C73.3896 199.525 78.224 204.38 84.636 207.045C98.4932 212.813 114.472 206.251 120.248 192.406C123.043 185.707 123.062 178.315 120.294 171.598C117.526 164.881 112.295 159.642 105.588 156.849C98.9176 154.084 91.7768 154.184 85.5032 156.548L101.778 163.265C112 167.518 116.834 179.237 112.572 189.44C108.319 199.644 96.5743 204.472 86.352 200.219ZM208.309 101.008C208.309 83.2755 193.852 68.8373 176.092 68.8373C158.323 68.8373 143.866 83.2755 143.866 101.008C143.866 118.741 158.323 133.17 176.092 133.17C193.852 133.17 208.309 118.741 208.309 101.008ZM151.939 100.954C151.939 87.6106 162.779 76.7956 176.138 76.7956C189.507 76.7956 200.347 87.6106 200.347 100.954C200.347 114.297 189.507 125.112 176.138 125.112C162.779 125.112 151.939 114.297 151.939 100.954Z" fill="url(#paint0_linear_1_849)"/>
<defs>
<linearGradient id="paint0_linear_1_849" x1="134" y1="6" x2="134" y2="262" gradientUnits="userSpaceOnUse">
<stop stop-color="#1B1B1B"/>
<stop offset="1" stop-color="#454DE9"/>
</linearGradient>
</defs>
</svg>
