<svg width="255" height="100" viewBox="0 0 255 100" fill="none" xmlns="http://www.w3.org/2000/svg">
<rect width="255" height="100" rx="29" fill="url(#paint0_linear_2_2)"/>
<path d="M114.499 66.32C113.672 66.32 113.032 66.0933 112.579 65.64C112.152 65.16 111.939 64.5067 111.939 63.68V42.08H104.139C103.445 42.08 102.899 41.8933 102.499 41.52C102.125 41.12 101.939 40.5867 101.939 39.92C101.939 39.2267 102.125 38.7067 102.499 38.36C102.899 37.9867 103.445 37.8 104.139 37.8H124.859C125.552 37.8 126.085 37.9867 126.459 38.36C126.859 38.7067 127.059 39.2267 127.059 39.92C127.059 40.5867 126.859 41.12 126.459 41.52C126.085 41.8933 125.552 42.08 124.859 42.08H117.059V63.68C117.059 64.5067 116.845 65.16 116.419 65.64C115.992 66.0933 115.352 66.32 114.499 66.32ZM134.17 66.28C133.37 66.28 132.757 66.04 132.33 65.56C131.903 65.08 131.69 64.4133 131.69 63.56V48.88C131.69 48 131.903 47.3333 132.33 46.88C132.757 46.4 133.37 46.16 134.17 46.16C134.97 46.16 135.583 46.4 136.01 46.88C136.463 47.3333 136.69 48 136.69 48.88V63.56C136.69 64.4133 136.477 65.08 136.05 65.56C135.623 66.04 134.997 66.28 134.17 66.28ZM134.17 42.44C133.237 42.44 132.503 42.2133 131.97 41.76C131.463 41.28 131.21 40.6267 131.21 39.8C131.21 38.9467 131.463 38.2933 131.97 37.84C132.503 37.3867 133.237 37.16 134.17 37.16C135.13 37.16 135.863 37.3867 136.37 37.84C136.877 38.2933 137.13 38.9467 137.13 39.8C137.13 40.6267 136.877 41.28 136.37 41.76C135.863 42.2133 135.13 42.44 134.17 42.44ZM144.365 66.32C143.565 66.32 142.952 66.1067 142.525 65.68C142.098 65.2267 141.885 64.5867 141.885 63.76V40C141.885 39.1733 142.098 38.5467 142.525 38.12C142.952 37.6933 143.565 37.48 144.365 37.48C145.165 37.48 145.778 37.6933 146.205 38.12C146.658 38.5467 146.885 39.1733 146.885 40V54.76H146.965L153.565 47.8C154.098 47.2667 154.565 46.8533 154.965 46.56C155.365 46.2667 155.912 46.12 156.605 46.12C157.298 46.12 157.818 46.3067 158.165 46.68C158.538 47.0267 158.725 47.4533 158.725 47.96C158.725 48.4667 158.485 48.9733 158.005 49.48L151.045 56.84V54.76L158.685 63C159.165 63.5067 159.378 64.0267 159.325 64.56C159.298 65.0667 159.085 65.4933 158.685 65.84C158.285 66.16 157.778 66.32 157.165 66.32C156.418 66.32 155.818 66.1733 155.365 65.88C154.938 65.5867 154.458 65.1467 153.925 64.56L146.965 57.28H146.885V63.76C146.885 65.4667 146.045 66.32 144.365 66.32ZM173.17 66.32C172.344 66.32 171.704 66.0933 171.25 65.64C170.824 65.16 170.61 64.5067 170.61 63.68V42.08H162.81C162.117 42.08 161.57 41.8933 161.17 41.52C160.797 41.12 160.61 40.5867 160.61 39.92C160.61 39.2267 160.797 38.7067 161.17 38.36C161.57 37.9867 162.117 37.8 162.81 37.8H183.53C184.224 37.8 184.757 37.9867 185.13 38.36C185.53 38.7067 185.73 39.2267 185.73 39.92C185.73 40.5867 185.53 41.12 185.13 41.52C184.757 41.8933 184.224 42.08 183.53 42.08H175.73V63.68C175.73 64.5067 175.517 65.16 175.09 65.64C174.664 66.0933 174.024 66.32 173.17 66.32ZM193.969 66.4C191.943 66.4 190.183 65.9867 188.689 65.16C187.196 64.3333 186.036 63.16 185.209 61.64C184.383 60.0933 183.969 58.28 183.969 56.2C183.969 54.6267 184.196 53.2267 184.649 52C185.129 50.7467 185.809 49.68 186.689 48.8C187.569 47.8933 188.623 47.2133 189.849 46.76C191.076 46.28 192.449 46.04 193.969 46.04C195.996 46.04 197.756 46.4533 199.249 47.28C200.743 48.1067 201.903 49.28 202.729 50.8C203.556 52.32 203.969 54.12 203.969 56.2C203.969 57.7733 203.729 59.1867 203.249 60.44C202.796 61.6933 202.129 62.7733 201.249 63.68C200.369 64.56 199.316 65.24 198.089 65.72C196.863 66.1733 195.489 66.4 193.969 66.4ZM193.969 62.6C194.956 62.6 195.823 62.36 196.569 61.88C197.316 61.4 197.889 60.6933 198.289 59.76C198.716 58.8 198.929 57.6133 198.929 56.2C198.929 54.0667 198.476 52.48 197.569 51.44C196.663 50.3733 195.463 49.84 193.969 49.84C192.983 49.84 192.116 50.08 191.369 50.56C190.623 51.0133 190.036 51.72 189.609 52.68C189.209 53.6133 189.009 54.7867 189.009 56.2C189.009 58.3067 189.463 59.9067 190.369 61C191.276 62.0667 192.476 62.6 193.969 62.6ZM210.576 66.32C209.776 66.32 209.163 66.1067 208.736 65.68C208.309 65.2267 208.096 64.5867 208.096 63.76V40C208.096 39.1733 208.309 38.5467 208.736 38.12C209.163 37.6933 209.776 37.48 210.576 37.48C211.376 37.48 211.989 37.6933 212.416 38.12C212.869 38.5467 213.096 39.1733 213.096 40V54.76H213.176L219.776 47.8C220.309 47.2667 220.776 46.8533 221.176 46.56C221.576 46.2667 222.123 46.12 222.816 46.12C223.509 46.12 224.029 46.3067 224.376 46.68C224.749 47.0267 224.936 47.4533 224.936 47.96C224.936 48.4667 224.696 48.9733 224.216 49.48L217.256 56.84V54.76L224.896 63C225.376 63.5067 225.589 64.0267 225.536 64.56C225.509 65.0667 225.296 65.4933 224.896 65.84C224.496 66.16 223.989 66.32 223.376 66.32C222.629 66.32 222.029 66.1733 221.576 65.88C221.149 65.5867 220.669 65.1467 220.136 64.56L213.176 57.28H213.096V63.76C213.096 65.4667 212.256 66.32 210.576 66.32Z" fill="white"/>
<path d="M72.2898 42.0242C75.961 44.6472 80.4584 46.1904 85.3157 46.1904V36.8482C84.3965 36.8484 83.4796 36.7526 82.5802 36.5621V43.9158C77.7232 43.9158 73.2264 42.3725 69.5543 39.7498V58.8146C69.5543 68.3518 61.8189 76.0827 52.2774 76.0827C48.7173 76.0827 45.4082 75.0069 42.6594 73.162C45.7967 76.3682 50.1719 78.3571 55.0124 78.3571C64.5544 78.3571 72.2902 70.6263 72.2902 61.0887V42.0242H72.2898ZM75.6644 32.599C73.7882 30.5503 72.5564 27.9028 72.2898 24.9758V23.7742H69.6975C70.35 27.4944 72.5757 30.6727 75.6644 32.599ZM48.6944 65.8434C47.6462 64.4697 47.0797 62.7892 47.0823 61.0613C47.0823 56.6994 50.6204 53.1627 54.9854 53.1627C55.7989 53.1625 56.6076 53.2869 57.3828 53.5328V43.9818C56.4768 43.8577 55.5624 43.805 54.6484 43.8243V51.2584C53.8726 51.0125 53.0636 50.8876 52.2499 50.8884C47.8848 50.8884 44.3469 54.4248 44.3469 58.7873C44.3469 61.8719 46.1154 64.5425 48.6944 65.8434Z" fill="#FF004F"/>
<path d="M69.5543 39.7496C73.2265 42.3723 77.7233 43.9156 82.5802 43.9156V36.5619C79.8691 35.9847 77.469 34.5687 75.6644 32.599C72.5755 30.6725 70.3501 27.4942 69.6975 23.7742H62.8883V61.0883C62.8728 65.4383 59.3408 68.9606 54.9851 68.9606C52.4183 68.9606 50.138 67.7377 48.6939 65.8434C46.115 64.5425 44.3466 61.8717 44.3466 58.7875C44.3466 54.4253 47.8845 50.8886 52.2496 50.8886C53.0859 50.8886 53.892 51.0187 54.6481 51.2586V43.8245C45.2742 44.018 37.7354 51.6734 37.7354 61.0885C37.7354 65.7884 39.6127 70.049 42.6597 73.1622C45.4085 75.0069 48.7175 76.0829 52.2776 76.0829C61.8193 76.0829 69.5545 68.3516 69.5545 58.8146L69.5543 39.7496Z" fill="black"/>
<path d="M82.5802 36.5619V34.5736C80.1354 34.5773 77.7387 33.8929 75.6644 32.5988C77.5006 34.6081 79.9185 35.9935 82.5802 36.5619ZM69.6975 23.7742C69.6353 23.4187 69.5875 23.0608 69.5543 22.7016V21.5H60.1525V58.8144C60.1375 63.1639 56.6056 66.6862 52.2495 66.6862C50.9707 66.6862 49.7632 66.3828 48.6939 65.8436C50.138 67.7377 52.4183 68.9604 54.9851 68.9604C59.3404 68.9604 62.873 65.4385 62.8883 61.0885V23.7742H69.6975ZM54.6485 43.8245V41.7077C53.8629 41.6004 53.0708 41.5465 52.2778 41.5469C42.7354 41.5469 35 49.278 35 58.8144C35 64.7932 38.0401 70.0623 42.6598 73.1618C39.6129 70.0489 37.7355 65.788 37.7355 61.0883C37.7355 51.6734 45.2742 44.0181 54.6485 43.8245Z" fill="#00F2EA"/>
<defs>
<linearGradient id="paint0_linear_2_2" x1="127.5" y1="0" x2="127.5" y2="100" gradientUnits="userSpaceOnUse">
<stop stop-color="#353535"/>
<stop offset="1" stop-color="#676565"/>
</linearGradient>
</defs>
</svg>
